<svg xmlns="http://www.w3.org/2000/svg" preserveAspectRatio="none" viewBox="0 0 370.92 370.29" ><path fill="rgba(35,24,21,1)" d="M326.66 214.08l44.27-17.92-41.84-23.03 37.43-29.66-46.63-10.32 27.55-39-47.64 3.24 15.44-45.19-44.8 16.53 2.09-47.71L234.2 49.5 222.76 3.14l-28.75 38.13L169.98 0l-16.85 44.68-34.69-32.82-3.57 47.62-42.53-21.72 9.99 46.7L35.4 75.6l22.74 42-47.52 4.72 33.65 33.88L0 174.12l41.83 23.04-37.42 29.66 46.62 10.31-27.55 39.01 47.65-3.24-15.45 45.19 44.8-16.53-2.09 47.71 38.33-28.49 11.44 46.37 28.75-38.13 24.04 41.27 16.84-44.69 34.69 32.82 3.58-47.62 42.52 21.72-9.98-46.7 46.92 8.86-22.73-41.99 47.52-4.72-33.65-33.89z"></path></svg>